<mxfile host="app.diagrams.net" modified="2023-02-08T11:43:47.565Z" agent="5.0 (Windows)" etag="jSalxDP9KsdzY0Y4nhox" version="20.8.18" type="github">
  <diagram name="Strona-1" id="yWVTqIWbfWSGEWE-qExj">
    <mxGraphModel dx="1050" dy="564" grid="1" gridSize="10" guides="1" tooltips="1" connect="1" arrows="1" fold="1" page="1" pageScale="1" pageWidth="1169" pageHeight="827" math="0" shadow="0">
      <root>
        <mxCell id="0" />
        <mxCell id="1" parent="0" />
        <mxCell id="qZst-3vxcUXIMo8jrX1S-1" value="&lt;div&gt;START&lt;/div&gt;" style="ellipse;whiteSpace=wrap;html=1;aspect=fixed;" vertex="1" parent="1">
          <mxGeometry x="500" y="70" width="80" height="80" as="geometry" />
        </mxCell>
        <mxCell id="qZst-3vxcUXIMo8jrX1S-4" value="&lt;div&gt;sum = 0&lt;/div&gt;&lt;div&gt;&lt;br&gt;&lt;/div&gt;" style="rounded=0;whiteSpace=wrap;html=1;" vertex="1" parent="1">
          <mxGeometry x="480" y="200" width="120" height="60" as="geometry" />
        </mxCell>
        <mxCell id="qZst-3vxcUXIMo8jrX1S-5" value="" style="endArrow=classic;html=1;rounded=0;" edge="1" parent="1">
          <mxGeometry width="50" height="50" relative="1" as="geometry">
            <mxPoint x="539.5" y="260" as="sourcePoint" />
            <mxPoint x="540" y="310" as="targetPoint" />
          </mxGeometry>
        </mxCell>
        <mxCell id="qZst-3vxcUXIMo8jrX1S-6" value="sc.input" style="shape=parallelogram;perimeter=parallelogramPerimeter;whiteSpace=wrap;html=1;fixedSize=1;" vertex="1" parent="1">
          <mxGeometry x="480" y="310" width="120" height="60" as="geometry" />
        </mxCell>
        <mxCell id="qZst-3vxcUXIMo8jrX1S-7" value="" style="endArrow=classic;html=1;rounded=0;" edge="1" parent="1" source="qZst-3vxcUXIMo8jrX1S-6">
          <mxGeometry width="50" height="50" relative="1" as="geometry">
            <mxPoint x="515" y="490" as="sourcePoint" />
            <mxPoint x="540" y="410" as="targetPoint" />
          </mxGeometry>
        </mxCell>
        <mxCell id="qZst-3vxcUXIMo8jrX1S-8" value="sc.input&amp;lt;100" style="rhombus;whiteSpace=wrap;html=1;" vertex="1" parent="1">
          <mxGeometry x="490" y="410" width="100" height="100" as="geometry" />
        </mxCell>
        <mxCell id="qZst-3vxcUXIMo8jrX1S-11" value="" style="endArrow=classic;html=1;rounded=0;entryX=0.5;entryY=0;entryDx=0;entryDy=0;" edge="1" parent="1" source="qZst-3vxcUXIMo8jrX1S-1" target="qZst-3vxcUXIMo8jrX1S-4">
          <mxGeometry width="50" height="50" relative="1" as="geometry">
            <mxPoint x="440" y="190" as="sourcePoint" />
            <mxPoint x="550" y="160" as="targetPoint" />
          </mxGeometry>
        </mxCell>
        <mxCell id="qZst-3vxcUXIMo8jrX1S-12" value="" style="endArrow=classic;html=1;rounded=0;" edge="1" parent="1" source="qZst-3vxcUXIMo8jrX1S-8">
          <mxGeometry width="50" height="50" relative="1" as="geometry">
            <mxPoint x="520" y="540" as="sourcePoint" />
            <mxPoint x="540" y="560" as="targetPoint" />
            <Array as="points">
              <mxPoint x="540" y="530" />
            </Array>
          </mxGeometry>
        </mxCell>
        <mxCell id="qZst-3vxcUXIMo8jrX1S-13" value="" style="endArrow=classic;html=1;rounded=0;exitX=1;exitY=0.5;exitDx=0;exitDy=0;" edge="1" parent="1" source="qZst-3vxcUXIMo8jrX1S-8" target="qZst-3vxcUXIMo8jrX1S-16">
          <mxGeometry width="50" height="50" relative="1" as="geometry">
            <mxPoint x="620" y="485" as="sourcePoint" />
            <mxPoint x="760" y="530" as="targetPoint" />
            <Array as="points">
              <mxPoint x="760" y="460" />
            </Array>
          </mxGeometry>
        </mxCell>
        <mxCell id="qZst-3vxcUXIMo8jrX1S-14" value="sum=sum+sc.input" style="rounded=0;whiteSpace=wrap;html=1;" vertex="1" parent="1">
          <mxGeometry x="480" y="530" width="120" height="60" as="geometry" />
        </mxCell>
        <mxCell id="qZst-3vxcUXIMo8jrX1S-15" value="" style="endArrow=classic;html=1;rounded=0;exitX=0;exitY=0.5;exitDx=0;exitDy=0;entryX=0;entryY=0.5;entryDx=0;entryDy=0;" edge="1" parent="1" source="qZst-3vxcUXIMo8jrX1S-14" target="qZst-3vxcUXIMo8jrX1S-6">
          <mxGeometry width="50" height="50" relative="1" as="geometry">
            <mxPoint x="370" y="580" as="sourcePoint" />
            <mxPoint x="420" y="530" as="targetPoint" />
            <Array as="points">
              <mxPoint x="400" y="560" />
              <mxPoint x="400" y="460" />
              <mxPoint x="400" y="340" />
            </Array>
          </mxGeometry>
        </mxCell>
        <mxCell id="qZst-3vxcUXIMo8jrX1S-16" value="sum%2=0" style="rounded=0;whiteSpace=wrap;html=1;" vertex="1" parent="1">
          <mxGeometry x="700" y="620" width="120" height="60" as="geometry" />
        </mxCell>
        <mxCell id="qZst-3vxcUXIMo8jrX1S-17" value="" style="endArrow=classic;html=1;rounded=0;exitX=0.5;exitY=1;exitDx=0;exitDy=0;" edge="1" parent="1" source="qZst-3vxcUXIMo8jrX1S-16">
          <mxGeometry width="50" height="50" relative="1" as="geometry">
            <mxPoint x="720" y="740" as="sourcePoint" />
            <mxPoint x="560" y="720" as="targetPoint" />
            <Array as="points">
              <mxPoint x="760" y="720" />
            </Array>
          </mxGeometry>
        </mxCell>
        <mxCell id="qZst-3vxcUXIMo8jrX1S-18" value="" style="endArrow=classic;html=1;rounded=0;exitX=0;exitY=0.5;exitDx=0;exitDy=0;" edge="1" parent="1" source="qZst-3vxcUXIMo8jrX1S-16">
          <mxGeometry width="50" height="50" relative="1" as="geometry">
            <mxPoint x="590" y="720" as="sourcePoint" />
            <mxPoint x="560" y="650" as="targetPoint" />
          </mxGeometry>
        </mxCell>
        <mxCell id="qZst-3vxcUXIMo8jrX1S-19" value="wyswietl liczba parzysta" style="rounded=0;whiteSpace=wrap;html=1;" vertex="1" parent="1">
          <mxGeometry x="440" y="620" width="120" height="60" as="geometry" />
        </mxCell>
        <mxCell id="qZst-3vxcUXIMo8jrX1S-20" value="wyswietl liczba nieparzysta " style="rounded=0;whiteSpace=wrap;html=1;" vertex="1" parent="1">
          <mxGeometry x="440" y="690" width="120" height="60" as="geometry" />
        </mxCell>
        <mxCell id="qZst-3vxcUXIMo8jrX1S-21" value="" style="endArrow=classic;html=1;rounded=0;exitX=0;exitY=0.5;exitDx=0;exitDy=0;" edge="1" parent="1" source="qZst-3vxcUXIMo8jrX1S-19">
          <mxGeometry width="50" height="50" relative="1" as="geometry">
            <mxPoint x="340" y="660" as="sourcePoint" />
            <mxPoint x="280" y="680" as="targetPoint" />
            <Array as="points">
              <mxPoint x="360" y="650" />
              <mxPoint x="360" y="680" />
            </Array>
          </mxGeometry>
        </mxCell>
        <mxCell id="qZst-3vxcUXIMo8jrX1S-22" value="" style="endArrow=classic;html=1;rounded=0;exitX=0;exitY=0.5;exitDx=0;exitDy=0;" edge="1" parent="1" source="qZst-3vxcUXIMo8jrX1S-20">
          <mxGeometry width="50" height="50" relative="1" as="geometry">
            <mxPoint x="350" y="740" as="sourcePoint" />
            <mxPoint x="280" y="680" as="targetPoint" />
            <Array as="points">
              <mxPoint x="360" y="720" />
              <mxPoint x="360" y="680" />
            </Array>
          </mxGeometry>
        </mxCell>
        <mxCell id="qZst-3vxcUXIMo8jrX1S-23" value="fin" style="ellipse;whiteSpace=wrap;html=1;aspect=fixed;" vertex="1" parent="1">
          <mxGeometry x="200" y="640" width="80" height="80" as="geometry" />
        </mxCell>
        <mxCell id="qZst-3vxcUXIMo8jrX1S-24" value="true" style="text;strokeColor=none;align=center;fillColor=none;html=1;verticalAlign=middle;whiteSpace=wrap;rounded=0;" vertex="1" parent="1">
          <mxGeometry x="540" y="500" width="60" height="30" as="geometry" />
        </mxCell>
        <mxCell id="qZst-3vxcUXIMo8jrX1S-26" value="false" style="text;strokeColor=none;align=center;fillColor=none;html=1;verticalAlign=middle;whiteSpace=wrap;rounded=0;" vertex="1" parent="1">
          <mxGeometry x="640" y="430" width="60" height="30" as="geometry" />
        </mxCell>
        <mxCell id="qZst-3vxcUXIMo8jrX1S-27" value="false" style="text;strokeColor=none;align=center;fillColor=none;html=1;verticalAlign=middle;whiteSpace=wrap;rounded=0;" vertex="1" parent="1">
          <mxGeometry x="630" y="690" width="60" height="30" as="geometry" />
        </mxCell>
        <mxCell id="qZst-3vxcUXIMo8jrX1S-28" value="true" style="text;strokeColor=none;align=center;fillColor=none;html=1;verticalAlign=middle;whiteSpace=wrap;rounded=0;" vertex="1" parent="1">
          <mxGeometry x="610" y="620" width="60" height="30" as="geometry" />
        </mxCell>
      </root>
    </mxGraphModel>
  </diagram>
</mxfile>
